<svg xmlns="http://www.w3.org/2000/svg" width="49" height="48" fill="none">
  <style>
    path { fill: #1a1a1a; }
    @media (prefers-color-scheme: dark) {
      path { fill: #fefefe; }
    }
  </style>
  <path d="M2.558 39.661h29.389c.809 0 1.26-.533 1.418-.77l14.493-21.775c.262-.393.155-.922-.236-1.182-.392-.262-.922-.154-1.182.236L32.2 37.566H2.558c-.47 0-.853-.383-.853-.854v-3.123c0-.471.382-.854.853-.854h29.389c.809 0 1.26-.568 1.418-.805l14.493-21.775c.262-.393.155-.92-.236-1.182-.392-.262-.922-.154-1.182.236L32.2 30.604H2.558c-.47 0-.853-.381-.853-.852V26.63c0-.469.382-.852.853-.852h28.47c.285 0 .551-.143.709-.379l15.33-23.007c.174-.262.19-.6.042-.875a.853.853 0 0 0-.751-.451H28.969L21.795 12.45l-1.664-3.188-5.987 3.188 7.175-11.385h-3.431c-.999 0-1.855.58-2.276 1.418l-.001-.001L.599 24.722s-.598.852-.598 1.908v3.125c0 .684.272 1.301.709 1.76l-.112.166S0 32.535 0 33.591v3.123c0 .676.268 1.285.697 1.742l-.099.148S0 39.458 0 40.514v3.123c0 1.41 1.146 2.557 2.556 2.557h30.098c.285 0 .551-.143.709-.379L47.857 24.04c.262-.393.155-.922-.236-1.182-.392-.262-.922-.154-1.182.236l-14.24 21.395H2.558c-.47 0-.853-.381-.853-.852v-3.123c0-.47.382-.853.853-.853"/>
</svg>
